<svg id="Layer_1" data-name="Layer 1" xmlns="http://www.w3.org/2000/svg" viewBox="0 0 512 512"><title>light-bulb-idea-flat</title><path d="M256,510.4C116.1,510.4,2.28,396.28,2.28,256S116.1,1.6,256,1.6,509.72,115.73,509.72,256,395.9,510.4,256,510.4Z" fill="none" stroke="#131313" stroke-miterlimit="10" stroke-width="4.56"/><ellipse cx="256" cy="256" rx="217.71" ry="218.3" fill="#131313"/><path d="M309.43,244.62a66.48,66.48,0,0,0-9.26-23.2c-7-10.87-20.32-23.81-44.2-23.84h-.73c-23.9,0-37.26,12.9-44.27,23.74a66.82,66.82,0,0,0-9.29,23.19,48.9,48.9,0,0,0,.5,19.34,85.07,85.07,0,0,0,5.65,17.07,111.06,111.06,0,0,0,9.57,17.31l.13.19.14.17c4.07,5,5.72,13.38,6.08,16.69a20.71,20.71,0,0,0,2.78,10.94c-.45,10.59-.16,19.29.89,25.92.9,5.61,2.31,9.7,4.29,12.49l1.06,1.48,1.68.69a52.9,52.9,0,0,0,19.72,3.45h0a75.41,75.41,0,0,0,21.76-3.34l2.11-.63,1.25-1.81c2-2.82,3.34-6.92,4.22-12.53,1-6.59,1.33-15.21.9-25.66a20.79,20.79,0,0,0,2.81-10.94c.37-3.32,2-11.69,6.12-16.69l.14-.17.13-.18a111.69,111.69,0,0,0,9.6-17.3A86.15,86.15,0,0,0,308.91,264,49.13,49.13,0,0,0,309.43,244.62Zm-72.67,2,.71-.28a7.74,7.74,0,0,0-.27,1.32Zm4.1-1.34c.68-.17,1.37-.35,2-.5-.77,1.18-1,2.37.1,3.3,3.15,2.71,5-1.15,4-4,.32,0,.83-.08,1.47-.17-1.33,3.48,4.77,7.77,6,1.75a4.49,4.49,0,0,0-.5-2.59c1-.16,1.86-.28,2.13-.3a9.26,9.26,0,0,0,1.19-.15c-2,3.08-2.46,6.8,1.22,6.8a3.31,3.31,0,0,0,2.64-1.63c.06.15.12.29.19.44,1.92,3.76,6.43-.54,6.12-4.87a3,3,0,0,1,1,.14c-2.48,3.12-1.34,5,.59,5.62l-14,41.25L238,249.6C241.21,250.87,241.46,247.81,240.87,245.28Zm20.88-1.57a5.25,5.25,0,0,0-1.12-1.58,8.62,8.62,0,0,1,2.75.14A6.52,6.52,0,0,0,261.75,243.71Zm21.71,47.19a40.91,40.91,0,0,0-7.25,15.41,53.54,53.54,0,0,0-1.55,8.34l0,.47,0,.48a8.17,8.17,0,0,1-1.5,5l-1.42,1.62A71,71,0,0,1,261,324.42l-.39-28.57a5.44,5.44,0,0,0-.93-3l16.15-47.57-1.42-.5c0-.16-.06-.32-.12-.5-1-3.18-4.43-4-7.62-3.36a5.13,5.13,0,0,0-.84-1.14c-2.27-2.35-5.18-1.13-7.32,1.11a11.28,11.28,0,0,0-5.93.13c-1-1.09-2.28-1.75-3.53-1.24a18.54,18.54,0,0,0-3.6,2.27c-1-.72-2.58-1-4.72-.36a3.42,3.42,0,0,0-1.2.78c-3.08-3.78-6.06,1.53-6.33,4.61l-1.65.7,19,45.47a5.38,5.38,0,0,0-.72,2.71l.4,28.86a46.11,46.11,0,0,1-11-1.85l0-.61-1.53-1.87a8.46,8.46,0,0,1-1.46-5l0-.48,0-.48a55.21,55.21,0,0,0-1.52-8.33,41.25,41.25,0,0,0-7.22-15.44,99.11,99.11,0,0,1-8.25-15c-3.48-7.83-7.21-19.21-5.3-28.93l0-.1v-.13a55.26,55.26,0,0,1,7.68-18.8c7.72-11.73,19-17.67,33.49-17.66H256c14.5,0,25.74,6,33.45,17.72A54.55,54.55,0,0,1,297,246.71l0,.23C300.66,265.2,284.88,288.83,283.46,290.89Z" fill="#ede9e2"/><path d="M204.13,301.05l-28.28,28.74a3.59,3.59,0,1,0,5.1,5l28.28-28.73a3.59,3.59,0,0,0-5.11-5Z" fill="#ede9e2"/><path d="M307.87,205.86l28.28-28.74a3.59,3.59,0,0,0-5.1-5.05l-28.28,28.75a3.59,3.59,0,0,0,5.11,5Z" fill="#ede9e2"/><path d="M201.74,208.62a3.58,3.58,0,1,0,4.81-5.29L176.81,176.1a3.58,3.58,0,1,0-4.81,5.3Z" fill="#ede9e2"/><path d="M310.27,298.29a3.57,3.57,0,0,0-5.07.22,3.61,3.61,0,0,0,.23,5.07l29.74,27.22a3.58,3.58,0,1,0,4.82-5.3Z" fill="#ede9e2"/><path d="M189.36,253.45a3.59,3.59,0,0,0-3.58-3.59H145.51a3.59,3.59,0,0,0,0,7.18h40.27A3.59,3.59,0,0,0,189.36,253.45Z" fill="#ede9e2"/><path d="M366.49,249.86H326.23a3.59,3.59,0,1,0,0,7.18h40.26a3.59,3.59,0,0,0,0-7.18Z" fill="#ede9e2"/><path d="M256,189.29a3.58,3.58,0,0,0,3.57-3.59V145.33a3.58,3.58,0,1,0-7.15,0V185.7A3.58,3.58,0,0,0,256,189.29Z" fill="#ede9e2"/></svg>