<svg id="Layer_1" data-name="Layer 1" xmlns="http://www.w3.org/2000/svg" viewBox="0 0 512 512"><title>telephone-flat</title><path d="M256,510.18C116.1,510.18,2.28,396.16,2.28,256S116.1,1.82,256,1.82,509.72,115.84,509.72,256,395.9,510.18,256,510.18Z" fill="none" stroke="#131313" stroke-miterlimit="10" stroke-width="4.56"/><ellipse cx="256" cy="256" rx="217.72" ry="218.11" fill="#131313"/><path d="M233.55,229.7a26.94,26.94,0,0,0,5.61-8.08c4.54-11.17,2.47-13.33,2.47-13.33-3-6.45-9.38-15.07-17.83-23.54s-17.07-14.86-23.5-17.87c0,0-10.46-3.22-18.31,4.67,0,0,0,0-.08.08l0,0h0c-1.08,1.09-2.08,2.18-3,3.26Z" fill="#e0dfd7"/><path d="M345,311.8c-3-6.45-9.38-15.07-17.84-23.54s-17.07-14.87-23.5-17.86c0,0-2.16-2.08-13.31,2.48a27,27,0,0,0-8.07,5.61l54.69,54.79q1.62-1.4,3.26-3h0l0,0c.08-.08.1,0,.08-.08C348.18,322.27,345,311.8,345,311.8Z" fill="#e0dfd7"/><path d="M276.41,286.35c-1.73,2.33-4.46,3.29-7.73,3.29-10,0-24.84-8.93-31.09-15.18-8.31-8.33-21.28-31.89-11.88-38.91.53-.33,1.07-.67,1.61-1l-53.22-53.32c-8,12.19-7.7,21.92-7.7,21.92S165,247.4,214.8,297.28c47.16,47.25,89.28,48.49,93.61,48.49h.53c1.32,0,10.47-.28,21.72-7.72l-53.22-53.32C277.07,285.28,276.73,285.82,276.41,286.35Z" fill="#e0dfd7"/></svg>