<svg id="Layer_1" data-name="Layer 1" xmlns="http://www.w3.org/2000/svg" viewBox="0 0 512 512"><title>office-binders-flat</title><path d="M256,510.18C116.1,510.18,2.28,396.16,2.28,256S116.1,1.82,256,1.82,509.72,115.85,509.72,256,395.9,510.18,256,510.18Z" fill="none" stroke="#131313" stroke-miterlimit="10" stroke-width="4.56"/><ellipse cx="256" cy="256" rx="217.72" ry="218.11" fill="#131313"/><path d="M203.2,250.41v33H175v-33h28.2m8.51-12.78h-45.2a4.26,4.26,0,0,0-4.25,4.26v98.57a4.25,4.25,0,0,0,4.25,4.25h45.21a4.24,4.24,0,0,0,4.24-4.25V241.89a4.27,4.27,0,0,0-4.25-4.26Z" fill="#e0dfd7"/><path d="M269.69,224.83v66.34H241.48V224.83h28.21m8.5-12.78H233a4.26,4.26,0,0,0-4.24,4.26V340.46a4.25,4.25,0,0,0,4.24,4.25h45.21a4.25,4.25,0,0,0,4.24-4.25V216.3a4.25,4.25,0,0,0-4.24-4.26Z" fill="#e0dfd7"/><path d="M337,180.06v82.07H308.79V180.06H337m8.48-12.77H300.29a4.25,4.25,0,0,0-4.26,4.25v168.9a4.25,4.25,0,0,0,4.26,4.25h45.18a4.25,4.25,0,0,0,4.26-4.25V171.55a4.25,4.25,0,0,0-4.26-4.25Z" fill="#e0dfd7"/></svg>