<svg id="Layer_1" data-name="Layer 1" xmlns="http://www.w3.org/2000/svg" viewBox="0 0 512 512"><title>dollar-bill-flat</title><path d="M256,510.4C116.1,510.4,2.28,396.28,2.28,256S116.1,1.6,256,1.6,509.72,115.73,509.72,256,395.9,510.4,256,510.4Z" fill="none" stroke="#131313" stroke-miterlimit="10" stroke-width="4.56"/><ellipse cx="256" cy="256" rx="217.71" ry="218.3" fill="#131313"/><path d="M257.11,212.89c-23.43,0-42.42,19.54-42.42,43.66s19,43.66,42.42,43.66,42.42-19.56,42.42-43.66S280.54,212.89,257.11,212.89Zm0,78c-18.45,0-33.39-15.38-33.39-34.36s14.94-34.36,33.39-34.36,33.4,15.38,33.4,34.36S275.55,290.91,257.11,290.91Z" fill="#ede9e2"/><path d="M267.85,256.84a12.7,12.7,0,0,0-3.82-2.58,39,39,0,0,0-5-1.51V237.94a6.63,6.63,0,0,1,3.84,2.12,8.71,8.71,0,0,1,1.84,4.64l5.17-.79a11.8,11.8,0,0,0-3.95-7.69,12.09,12.09,0,0,0-6.9-2.62v-2.47H256.1v2.47c-3.31.35-5.82,1.27-7.51,2.8a11.39,11.39,0,0,0-3.76,8.88,11.66,11.66,0,0,0,1.28,5.5,9.32,9.32,0,0,0,3.67,3.8A20.51,20.51,0,0,0,256.1,257v16.36a7.26,7.26,0,0,1-5.06-3,13.15,13.15,0,0,1-2-6.09l-5,1a14.8,14.8,0,0,0,2,6.77,10.73,10.73,0,0,0,4.06,4,18,18,0,0,0,6.09,1.73v5.14H259v-5.19a12,12,0,0,0,8.56-3.82,13.59,13.59,0,0,0,2.49-13.43A10.43,10.43,0,0,0,267.85,256.84ZM256.1,252.1a9.82,9.82,0,0,1-4.86-2.82,7.36,7.36,0,0,1,.26-9,7.34,7.34,0,0,1,4.6-2.39Zm7.75,18.71a7.36,7.36,0,0,1-4.81,2.59V257.75q4,1.34,5.36,3a7,7,0,0,1,1.36,4.5A8.19,8.19,0,0,1,263.85,270.81Z" fill="#ede9e2"/><path d="M339.56,189.79H172.44c-13.93,0-25.23.64-25.23,26.6v79.2c0,24.66,11.3,26.61,25.23,26.61H339.56c13.93,0,25.23-1.48,25.23-26.61V216.4C364.78,192.81,353.49,189.79,339.56,189.79Zm15.55,92.71c-3.41-4.59-8.33-7.49-13.83-7.49-10.27,0-18.6,10.1-18.6,22.53a25.74,25.74,0,0,0,3.57,13.25H182.34a25.71,25.71,0,0,0,3.58-13.25c0-12.43-8.33-22.53-18.6-22.53a16.2,16.2,0,0,0-9.41,3.12V232.47a16.07,16.07,0,0,0,9.41,3.14c10.27,0,18.6-10.1,18.6-22.55a26,26,0,0,0-2.81-11.85H325.48a25.92,25.92,0,0,0-2.81,11.85c0,12.45,8.33,22.55,18.6,22.55,5.5,0,10.42-2.92,13.83-7.5Z" fill="#ede9e2"/><path d="M203.17,251a6.2,6.2,0,1,0,6,6.2A6.11,6.11,0,0,0,203.17,251Z" fill="#ede9e2"/><path d="M309.58,251a6.2,6.2,0,1,0,6,6.2A6.11,6.11,0,0,0,309.58,251Z" fill="#ede9e2"/></svg>