<svg id="Layer_1" data-name="Layer 1" xmlns="http://www.w3.org/2000/svg" viewBox="0 0 512 512"><title>wifi-flat</title><path d="M256,510.18C116.1,510.18,2.28,396.16,2.28,256S116.1,1.82,256,1.82,509.72,115.84,509.72,256,395.9,510.18,256,510.18Z" fill="none" stroke="#131313" stroke-miterlimit="10" stroke-width="4.56"/><ellipse cx="256" cy="256" rx="217.72" ry="218.11" fill="#131313"/><path d="M208.76,283.21a66.55,66.55,0,0,1,94.11,0l2.74,2.74c2.52,3.29,8.41,2.15,13.1-2.55l3.61-3.62c4.69-4.7,6.36-11.15,3.72-14.33l-2.72-2.73a95.44,95.44,0,0,0-135,0l-2.71,2.72c-2.64,3.19-1,9.64,3.71,14.33l3.61,3.62c4.69,4.7,10.59,5.85,13.1,2.55Z" fill="#e0dfd7"/><path d="M272.85,329.33a24.12,24.12,0,1,1,0-34.14A24.06,24.06,0,0,1,272.85,329.33Z" fill="#e0dfd7"/><path d="M145.11,222.32l-2.17,2.26c-2.25,2.56-.25,8.49,4.43,13.18l3.47,3.48c4.68,4.69,10.39,6.34,12.7,3.66l2.26-2.34c.39-.41.78-.8,1.18-1.21a125.61,125.61,0,0,1,177.66,0q1.23,1.24,2.41,2.5l1.81,1.92c1.88,2.19,7.24.15,11.93-4.54l3.47-3.47c4.68-4.69,7-10.31,5-12.49l-1.83-1.93c-.78-.83-1.58-1.66-2.39-2.47-60.26-60.36-158.29-60.36-218.56,0C146.06,221.35,145.57,221.83,145.11,222.32Z" fill="#e0dfd7"/></svg>